HIERARCHY
ROOT pelvis
{
  OFFSET 0 100 0
  CHANNELS 6 Xposition Yposition Zposition Zrotation Xrotation Yrotation
  JOINT pelvis_right_femur
  {
    OFFSET -10.78128 -3.44521 -0.5502486
    CHANNELS 3 Zrotation Xrotation Yrotation
    JOINT right_femur_tibia
    {
      OFFSET -0.8047443 -44.0398 -0.1307829
      CHANNELS 3 Zrotation Xrotation Yrotation
      JOINT right_tibia_foot
      {
        OFFSET 3.006224 -47.83518 -5
        CHANNELS 3 Zrotation Xrotation Yrotation
        End Site
        {
          OFFSET 0 -5 15
        }
      }
    }
  }
  JOINT pelvis_left_femur
  {
    OFFSET 10.78128 -3.44521 -0.5502486
    CHANNELS 3 Zrotation Xrotation Yrotation
    JOINT left_femur_tibia
    {
      OFFSET 0.8047443 -44.0398 -0.1307829
      CHANNELS 3 Zrotation Xrotation Yrotation
      JOINT left_tibia_foot
      {
        OFFSET -4.370144 -48.10324 -4.275266
        CHANNELS 3 Zrotation Xrotation Yrotation
        End Site
        {
          OFFSET 0 -5 15
        }
      }
    }
  }
  JOINT pelvis_spine1
  {
    OFFSET 0 6.468898 -3.129235
    CHANNELS 3 Zrotation Xrotation Yrotation
    JOINT spine1
    {
      OFFSET 0 23.15396 4.99043
      CHANNELS 3 Zrotation Xrotation Yrotation
      JOINT spine2
      {
        OFFSET 0 20.79997 -5.064912
        CHANNELS 3 Zrotation Xrotation Yrotation
        JOINT neck
        {
          OFFSET 0 14.38658 9.616178
          CHANNELS 3 Zrotation Xrotation Yrotation
          End Site
          {
            OFFSET 0 20 0
          }
        }
      }
      JOINT right_manubrium
      {
        OFFSET -5.722621 16.35077 3.967754
        CHANNELS 3 Zrotation Xrotation Yrotation
        JOINT right_clavicle
        {
          OFFSET -13.16364 1.694482 -4.693211
          CHANNELS 3 Zrotation Xrotation Yrotation
          JOINT right_humerus
          {
            OFFSET -28.5034 -0.3100689 -2.792744
            CHANNELS 3 Zrotation Xrotation Yrotation
            JOINT right_radius
            {
              OFFSET -25.15693 0.02248979 -1.271978
              CHANNELS 3 Zrotation Xrotation Yrotation
              End Site
              {
                OFFSET -15 0 0
              }
            }
          }
        }
      }
      JOINT left_manubrium
      {
        OFFSET 5.722621 16.35077 3.967754
        CHANNELS 3 Zrotation Xrotation Yrotation
        JOINT left_clavicle
        {
          OFFSET 13.16364 1.694482 -4.693211
          CHANNELS 3 Zrotation Xrotation Yrotation
          JOINT left_humerus
          {
            OFFSET 29.39168 -1.063119 -2.237045
            CHANNELS 3 Zrotation Xrotation Yrotation
            JOINT left_radius
            {
              OFFSET 24.59957 -0.9528479 0.9047498
              CHANNELS 3 Zrotation Xrotation Yrotation
              End Site
              {
                OFFSET 15 -0 -0
              }
            }
          }
        }
      }
    }
  }
}
MOTION
Frames: 17
Frame Time: 0.0416666666667
0 103.5113 0 1.111221 -2.154059 -0.04921911 3.183254 -14.18793 7.739824 -0 38.90332 -0 -5.693465 -17.51401 -5.050077 -6.526797 13.02681 -24.88461 -0 5.352999 -0 -0.4298645 -20.28902 23.1946 -3.665197 -3.285488 3.359804 2.052883 7.766019 -8.017366 0.5798092 23.63603 7.766016 3.864208 -21.89973 8.293919 7.027542 -18.8912 11.17707 85.99732 37.10862 -21.44417 -0 0 16.32635 -8.427037 9.247621 4.773902 4.227791 -18.58581 -3.32959 -100.3366 40.71344 28.45342 0 0 -19.34754 -12.13701 17.82417 27.76848
0.1317482 103.7831 0.9545403 1.115669 -2.390823 -0.06787677 2.811418 -13.78445 7.211217 -0 40.26799 -0 -5.706132 -17.13762 -4.993337 -6.591901 12.92045 -24.49571 -0 5.482465 -0 -0.6928727 -19.97436 22.75879 -3.693121 -3.142083 3.148457 2.021897 7.773582 -8.004894 0.4413011 23.77535 7.955523 3.838185 -21.65881 8.335073 7.10999 -18.62915 11.2136 85.9911 37.3604 -21.19931 -0 0 15.72998 -9.180455 9.617579 5.250744 4.116474 -18.58171 -3.392843 -99.42661 40.24245 27.48503 0 0 -19.17149 -11.72903 17.88958 27.13406
0.2067577 103.6239 2.279699 0.9898099 -0.8949753 -0.145968 3.781739 -18.89524 7.739444 -0 32.06694 -0 -5.433059 -15.22253 -5.037229 -6.259596 13.36283 -23.48904 -0 4.174195 -0 0.5637602 -22.08364 22.55817 -3.758635 -2.974669 3.670833 2.338649 7.937026 -8.383597 0.8121764 22.71997 7.554609 4.002517 -22.84974 8.221399 6.665783 -18.98991 11.1954 86.40902 36.66861 -22.29015 -0 0 16.47023 -8.420307 9.502436 4.735743 4.926648 -19.62783 -3.254328 -98.59311 39.55969 26.73581 0 0 -21.4192 -10.19642 17.03853 26.07447
0.2754952 103.2107 4.057598 0.7813417 0.3422213 -0.1290099 4.394506 -23.02117 7.793836 -0 26.93028 -0 -5.224654 -12.73868 -4.885206 -6.06977 13.6154 -22.30171 -0 3.796476 -0 1.372421 -23.41662 21.9593 -3.774622 -2.64272 3.887305 2.62751 8.067687 -8.648383 0.9968204 21.88086 7.506027 4.115407 -23.91704 8.349228 6.414584 -18.9971 11.24914 86.79877 36.47827 -22.89928 -0 0 16.23307 -8.4122 9.805422 4.832085 5.471836 -20.42222 -3.018582 -96.99241 38.10357 25.23169 0 0 -23.01348 -8.016398 16.31915 24.06875
0.3356707 102.5928 6.40981 0.4934528 1.550511 0.04540405 4.86734 -27.27909 7.318947 -0 22.15273 -0 -5.099443 -9.705065 -4.588358 -5.842112 14.10387 -20.99029 -0 3.974332 -0 1.270173 -24.69983 20.6386 -3.683409 -2.12652 3.872137 2.843263 8.011672 -8.814973 1.149218 21.18713 7.626507 4.271972 -24.79244 8.57822 6.179288 -18.63656 11.23488 87.25943 36.50754 -23.43486 -0 0 15.42287 -8.820153 10.37507 5.130819 5.990503 -21.12214 -2.793429 -95.10008 36.67153 23.2826 0 0 -24.75731 -6.017315 15.66835 22.18562
0.384776 101.8306 9.412404 0.09568927 2.526765 0.4009307 5.174315 -30.99379 6.464995 -0 18.26047 -0 -5.098827 -6.674606 -4.242954 -5.537281 14.7965 -19.62584 -0 4.962761 -0 0.223495 -25.51234 18.70984 -3.407188 -1.523808 3.617492 2.986944 7.826096 -8.891593 1.246303 20.69406 7.866598 4.404121 -25.38576 8.867863 5.935254 -17.98844 11.17583 87.77402 36.53056 -23.85196 -0 0 14.1513 -9.578836 11.08168 5.608972 6.390495 -21.64553 -2.613834 -93.11776 35.23611 21.08682 0 0 -26.32326 -4.276482 15.08943 20.46283
0.4158668 101.0027 13.13365 -0.4335321 3.185765 0.9185518 5.389803 -33.82011 5.387681 -0 15.27557 -0 -5.230494 -3.987913 -3.910117 -5.10196 15.64854 -18.26192 -0 7.098052 -0 -1.829766 -25.56565 16.21462 -2.873381 -0.8972079 3.156852 3.046998 7.530596 -8.871783 1.307218 20.41059 8.148761 4.476703 -25.65464 9.165686 5.653508 -17.10832 11.06825 88.31997 36.36977 -24.14642 -0 0 12.60348 -10.55952 11.81662 6.175356 6.625954 -21.92717 -2.510201 -91.26448 33.91589 18.88015 0 0 -27.53608 -2.942705 14.56764 19.09758
0.4229264 100.2281 17.59756 -1.085774 3.441805 1.527163 5.654614 -35.22443 4.364781 -0 13.47692 -0 -5.477581 -2.138123 -3.663916 -4.513174 16.46476 -16.99578 -0 10.76799 -0 -4.688565 -24.47057 13.4189 -2.044962 -0.3413047 2.571625 3.024768 7.171424 -8.754352 1.340369 20.34303 8.37811 4.440691 -25.59619 9.406781 5.345084 -16.10603 10.93149 88.82908 35.92888 -24.26598 -0 0 11.04227 -11.55112 12.45269 6.718016 6.616344 -21.87033 -2.492853 -89.80028 32.8452 17.00947 0 0 -28.10296 -2.118833 14.09609 18.24992
0.4021053 99.67463 22.77066 -1.812972 3.262972 2.105142 6.109273 -34.74077 3.64821 -0 13.06255 -0 -5.813191 -1.568857 -3.574546 -3.783729 16.92791 -15.86258 -0 16.36189 -0 -7.906687 -21.92281 10.717 -0.953588 0.05815484 1.983681 2.941379 6.812756 -8.557995 1.341678 20.48295 8.459148 4.259433 -25.25105 9.507926 5.060925 -15.09823 10.80639 89.22311 35.26183 -24.1652 -0 0 9.704923 -12.3599 12.92027 7.14657 6.285943 -21.42179 -2.558023 -88.88906 32.11128 15.76436 0 0 -27.78997 -1.807033 13.67073 17.97302
0.3527123 99.54845 28.531 -2.508545 2.709458 2.498398 6.780769 -32.10451 3.346711 -0 14.0453 -0 -6.239076 -2.523304 -3.672191 -3.00585 16.58432 -14.83954 -0 24.11009 -0 -10.80563 -17.92718 8.578576 0.2419772 0.2476639 1.564003 2.842192 6.538041 -8.32341 1.292169 20.80736 8.318261 3.945352 -24.72127 9.368772 4.917504 -14.20766 10.76068 89.40338 34.66825 -23.82151 -0 0 8.759085 -12.83487 13.22256 7.409518 5.595316 -20.62269 -2.680224 -88.61795 31.73744 15.37564 0 0 -26.50284 -1.907959 13.33334 18.19483
0.2783357 100.0483 34.65808 -2.998897 1.937687 2.565753 7.480355 -27.49205 3.300425 -0 16.0277 -0 -6.793591 -4.742039 -3.903944 -2.374751 14.93358 -13.80109 -0 33.90099 -0 -12.65366 -13.01043 7.335072 1.225588 0.250983 1.500783 2.789342 6.453533 -8.109125 1.159615 21.27246 7.954387 3.596783 -24.1447 8.896876 5.091226 -13.52353 10.88358 89.26152 34.69689 -23.25896 -0 0 8.17523 -13.00915 13.49004 7.557636 4.597376 -19.69096 -2.82256 -88.8931 31.57452 15.83577 0 0 -24.45166 -2.178011 13.18343 18.62565
0.1895985 101.2819 40.86075 -3.063841 1.136669 2.242695 7.869756 -21.64853 3.172991 -0 18.14752 -0 -7.492178 -7.283313 -4.090328 -2.133847 11.57558 -12.59888 -0 45.01507 -0 -12.93241 -8.251673 7.053316 1.589049 0.2008723 1.935083 2.818873 6.666751 -7.944087 0.923837 21.81044 7.488017 3.409159 -23.62437 8.075578 5.7627 -13.07778 11.2501 88.66667 35.95116 -22.4908 -0 0 7.727721 -13.18498 13.96584 7.762697 3.487704 -19.00512 -2.956039 -89.41559 31.29575 16.80621 0 0 -22.18686 -2.279502 13.33839 18.78981
0.1053667 103.1686 46.855 -2.530727 0.3817977 1.584738 7.651802 -15.63826 2.721671 -0 19.30301 -0 -8.178841 -8.877676 -3.947338 -2.392794 6.361643 -11.20928 -0 55.89705 -0 -11.65556 -4.892248 7.631028 1.065357 0.3085146 2.887934 2.871882 7.236034 -7.754897 0.6200029 22.32843 7.143554 3.589356 -23.12296 7.052939 6.957832 -12.88248 11.85511 87.45926 38.57445 -21.37415 -0 0 7.250429 -13.88507 14.86788 8.271453 2.592711 -18.9057 -3.074867 -89.79854 30.51849 17.73637 0 0 -20.3909 -1.927713 13.75939 18.23175
0.04925427 105.3812 52.44601 -1.455716 -0.4416174 0.7544608 6.775989 -10.19594 2.018754 -0 18.64111 -0 -8.484887 -8.992558 -3.245939 -2.918546 -0.5622639 -9.801005 -0 64.10865 -0 -9.587104 -3.610347 8.975453 -0.1656606 0.7592164 4.226426 2.769446 8.078192 -7.340573 0.3606606 22.73243 7.103532 4.164584 -22.44789 6.147135 8.349845 -13.04314 12.56307 85.42394 41.71055 -19.45022 -0 0 7.084536 -15.53112 16.10546 9.271167 2.234763 -19.35457 -3.169584 -89.91444 29.09074 18.33194 0 0 -19.4117 -1.132358 14.09794 16.90843
0.05119682 107.386 57.55989 -0.2344406 -1.465718 -0.05817672 5.562294 -5.245408 1.369064 -0 15.91125 -0 -8.061042 -8.74089 -2.057841 -3.130093 -8.769596 -8.538227 -0 66.8224 -0 -7.925952 -4.072465 10.92825 -1.44391 1.584474 5.679252 2.332159 8.893071 -6.50462 0.274547 22.98838 7.319142 4.835304 -21.43507 5.667459 9.256005 -13.79416 13.14745 82.40698 43.66428 -16.1267 -0 0 8.122704 -18.00674 17.11691 10.72015 2.520825 -19.80893 -3.181008 -90.0877 27.33041 18.89426 0 0 -18.93262 -0.3111231 13.89745 15.38549
0.1571311 108.6044 62.24937 0.5920949 -2.535763 -0.7625657 4.550146 -0.1988612 0.9527647 -0 11.42102 -0 -6.857033 -10.25148 -0.7292033 -2.41988 -17.47226 -7.322985 -0 62.10437 -0 -7.442611 -5.324048 13.08378 -2.087467 2.585948 6.905379 1.590324 9.23525 -5.286726 0.3894468 23.15402 7.519753 5.124687 -20.1932 5.690948 9.031475 -15.27015 13.39352 78.81863 43.1232 -11.44403 -0 0 11.02428 -20.5988 17.22055 12.30632 3.248006 -19.59891 -3.00764 -90.73793 25.87704 19.95653 0 0 -18.21754 0.01646016 13.09937 14.39995
0.4137952 108.6482 66.719 0.7545306 -3.184943 -1.422715 4.047527 5.282031 0.6418177 -0 5.910293 -0 -5.128067 -14.65427 0.4657212 -0.6340984 -25.46528 -5.910681 -0 50.44704 -0 -7.913997 -6.52968 14.96798 -1.955388 3.364852 7.663977 0.8209292 8.802651 -4.020643 0.5967872 23.28978 7.488054 4.795085 -19.07787 6.048498 7.631459 -17.20048 13.18519 75.61699 40.4565 -6.375778 -0 0 15.34904 -22.61828 16.30756 13.71723 4.053098 -18.5006 -2.56912 -91.87087 25.12229 21.61052 0 0 -16.771 -0.2600229 12.16233 14.14562
